<?xml version="1.0" encoding="UTF-8"?>
<svg xmlns="http://www.w3.org/2000/svg" version="1.1" viewBox="0 0 1000 1000">
  <!-- Generator: Adobe Illustrator 29.1.0, SVG Export Plug-In . SVG Version: 2.1.0 Build 142)  -->
  <defs>
    <style>
      .st0 {
        fill: #fff;
      }
    </style>
  </defs>
  <g id="Layer_1" zoomAndPan="disable">
    <polygon class="st0" points="-1125 0 -375 1000 125 1000 -875 0 -1125 0"/>
    <polygon class="st0" points="-875 0 125 1000 375 1000 -625 0 -875 0"/>
    <polygon class="st0" points="-625 0 375 1000 625 1000 -375 0 -625 0"/>
    <polygon class="st0" points="-375 0 625 1000 875 1000 -125 0 -375 0"/>
    <polygon points="-125 0 875 1000 1125 1000 125 0 -125 0"/>
    <polygon class="st0" points="125 0 1125 1000 1375 1000 375 0 125 0"/>
    <polygon class="st0" points="375 0 1375 1000 1625 1000 625 0 375 0"/>
    <polygon class="st0" points="625 0 1625 1000 1875 1000 875 0 625 0"/>
    <polygon class="st0" points="875 0 1875 1000 2125 1000 1125 0 875 0"/>
  </g>
</svg>